# MagicaVoxel @ Ephtracy

# group
o 

# material
mtllib Left_Arm.mtl
usemtl palette

# normals
vn -1 0 0
vn 1 0 0
vn 0 0 1
vn 0 0 -1
vn 0 -1 0
vn 0 1 0

# texcoords
vt 0.505859 0.5
vt 0.943359 0.5

# verts
v 1.4 3.2 -1.4
v 1.4 3.2 -1.8
v 1.4 3.6 -1.4
v 1.4 3.6 -1.8
v 1.5 3.6 -1.5
v 1.5 3.6 -1.7
v 1.5 4.2 -1.5
v 1.5 4.2 -1.7
v 1.6 3.2 -1.4
v 1.6 3.2 -1.5
v 1.6 3.2 -1.7
v 1.6 3.2 -1.8
v 1.6 3.3 -1.4
v 1.6 3.3 -1.5
v 1.6 3.3 -1.7
v 1.6 3.3 -1.8
v 1.7 3.2 -1.5
v 1.7 3.2 -1.7
v 1.7 3.3 -1.4
v 1.7 3.3 -1.5
v 1.7 3.3 -1.7
v 1.7 3.3 -1.8
v 1.7 3.6 -1.4
v 1.7 3.6 -1.5
v 1.7 3.6 -1.7
v 1.7 3.6 -1.8
v 1.7 4.2 -1.5
v 1.7 4.2 -1.7
v 1.8 3.3 -1.5
v 1.8 3.3 -1.7
v 1.8 3.6 -1.5
v 1.8 3.6 -1.7
v 1.4 3.2 -1.4
v 1.4 3.6 -1.4
v 1.6 3.2 -1.4
v 1.6 3.3 -1.4
v 1.7 3.3 -1.4
v 1.7 3.6 -1.4
v 1.5 3.6 -1.5
v 1.5 4.2 -1.5
v 1.6 3.2 -1.5
v 1.6 3.3 -1.5
v 1.7 3.2 -1.5
v 1.7 3.3 -1.5
v 1.7 3.6 -1.5
v 1.7 4.2 -1.5
v 1.8 3.3 -1.5
v 1.8 3.6 -1.5
v 1.5 3.6 -1.7
v 1.5 4.2 -1.7
v 1.6 3.2 -1.7
v 1.6 3.3 -1.7
v 1.7 3.2 -1.7
v 1.7 3.3 -1.7
v 1.7 3.6 -1.7
v 1.7 4.2 -1.7
v 1.8 3.3 -1.7
v 1.8 3.6 -1.7
v 1.4 3.2 -1.8
v 1.4 3.6 -1.8
v 1.6 3.2 -1.8
v 1.6 3.3 -1.8
v 1.7 3.3 -1.8
v 1.7 3.6 -1.8
v 1.4 3.2 -1.4
v 1.6 3.2 -1.4
v 1.6 3.2 -1.5
v 1.7 3.2 -1.5
v 1.6 3.2 -1.7
v 1.7 3.2 -1.7
v 1.4 3.2 -1.8
v 1.6 3.2 -1.8
v 1.6 3.3 -1.4
v 1.7 3.3 -1.4
v 1.6 3.3 -1.5
v 1.7 3.3 -1.5
v 1.8 3.3 -1.5
v 1.6 3.3 -1.7
v 1.7 3.3 -1.7
v 1.8 3.3 -1.7
v 1.6 3.3 -1.8
v 1.7 3.3 -1.8
v 1.4 3.6 -1.4
v 1.7 3.6 -1.4
v 1.5 3.6 -1.5
v 1.7 3.6 -1.5
v 1.8 3.6 -1.5
v 1.5 3.6 -1.7
v 1.7 3.6 -1.7
v 1.8 3.6 -1.7
v 1.4 3.6 -1.8
v 1.7 3.6 -1.8
v 1.5 4.2 -1.5
v 1.7 4.2 -1.5
v 1.5 4.2 -1.7
v 1.7 4.2 -1.7

# faces
f 3/1/1 2/1/1 1/1/1
f 4/1/1 2/1/1 3/1/1
f 7/2/1 6/2/1 5/2/1
f 8/2/1 6/2/1 7/2/1
f 9/1/2 10/1/2 13/1/2
f 13/1/2 10/1/2 14/1/2
f 11/1/2 12/1/2 15/1/2
f 15/1/2 12/1/2 16/1/2
f 17/1/2 18/1/2 20/1/2
f 20/1/2 18/1/2 21/1/2
f 19/1/2 20/1/2 23/1/2
f 23/1/2 20/1/2 24/1/2
f 21/1/2 22/1/2 25/1/2
f 25/1/2 22/1/2 26/1/2
f 24/2/2 25/2/2 27/2/2
f 27/2/2 25/2/2 28/2/2
f 29/1/2 30/1/2 31/1/2
f 31/1/2 30/1/2 32/1/2
f 35/1/3 34/1/3 33/1/3
f 36/1/3 34/1/3 35/1/3
f 37/1/3 34/1/3 36/1/3
f 38/1/3 34/1/3 37/1/3
f 43/1/3 42/1/3 41/1/3
f 44/1/3 42/1/3 43/1/3
f 45/2/3 40/2/3 39/2/3
f 46/2/3 40/2/3 45/2/3
f 47/1/3 45/1/3 44/1/3
f 48/1/3 45/1/3 47/1/3
f 51/1/4 52/1/4 53/1/4
f 53/1/4 52/1/4 54/1/4
f 49/2/4 50/2/4 55/2/4
f 55/2/4 50/2/4 56/2/4
f 54/1/4 55/1/4 57/1/4
f 57/1/4 55/1/4 58/1/4
f 59/1/4 60/1/4 61/1/4
f 61/1/4 60/1/4 62/1/4
f 62/1/4 60/1/4 63/1/4
f 63/1/4 60/1/4 64/1/4
f 67/1/5 66/1/5 65/1/5
f 69/1/5 67/1/5 65/1/5
f 69/1/5 68/1/5 67/1/5
f 70/1/5 68/1/5 69/1/5
f 71/1/5 69/1/5 65/1/5
f 72/1/5 69/1/5 71/1/5
f 75/1/5 74/1/5 73/1/5
f 76/1/5 74/1/5 75/1/5
f 79/1/5 77/1/5 76/1/5
f 80/1/5 77/1/5 79/1/5
f 81/1/5 79/1/5 78/1/5
f 82/1/5 79/1/5 81/1/5
f 83/1/6 84/1/6 85/1/6
f 85/1/6 84/1/6 86/1/6
f 83/1/6 85/1/6 88/1/6
f 86/1/6 87/1/6 89/1/6
f 89/1/6 87/1/6 90/1/6
f 83/1/6 88/1/6 91/1/6
f 88/1/6 89/1/6 91/1/6
f 91/1/6 89/1/6 92/1/6
f 93/2/6 94/2/6 95/2/6
f 95/2/6 94/2/6 96/2/6
