# MagicaVoxel @ Ephtracy

# group
o 

# material
mtllib Right_Shoulder.mtl
usemtl palette

# normals
vn -1 0 0
vn 1 0 0
vn 0 0 1
vn 0 0 -1
vn 0 -1 0
vn 0 1 0

# texcoords
vt 0.935547 0.5
vt 0.943359 0.5
vt 0.982422 0.5

# verts
v 1.5 3.4 -1.5
v 1.5 3.4 -1.7
v 1.5 3.6 -1.5
v 1.5 3.6 -1.7
v 1.5 3.8 -1.5
v 1.5 3.8 -1.7
v 1.5 4 -1.4
v 1.5 4 -1.5
v 1.5 4 -1.7
v 1.5 4 -1.8
v 1.5 4.3 -1.4
v 1.5 4.3 -1.8
v 1.6 4.2 -1.4
v 1.6 4.2 -1.5
v 1.6 4.2 -1.7
v 1.6 4.2 -1.8
v 1.6 4.3 -1.4
v 1.6 4.3 -1.5
v 1.6 4.3 -1.7
v 1.6 4.3 -1.8
v 1.7 3.4 -1.5
v 1.7 3.4 -1.7
v 1.7 3.6 -1.5
v 1.7 3.6 -1.7
v 1.7 3.8 -1.5
v 1.7 3.8 -1.7
v 1.7 3.9 -1.5
v 1.7 3.9 -1.7
v 1.7 4 -1.4
v 1.7 4 -1.5
v 1.7 4 -1.7
v 1.7 4 -1.8
v 1.7 4.2 -1.4
v 1.7 4.2 -1.5
v 1.7 4.2 -1.7
v 1.7 4.2 -1.8
v 1.7 4.3 -1.5
v 1.7 4.3 -1.7
v 1.8 3.9 -1.5
v 1.8 3.9 -1.7
v 1.8 4.2 -1.5
v 1.8 4.2 -1.7
v 1.5 4 -1.4
v 1.5 4.3 -1.4
v 1.6 4.2 -1.4
v 1.6 4.3 -1.4
v 1.7 4 -1.4
v 1.7 4.2 -1.4
v 1.5 3.4 -1.5
v 1.5 3.6 -1.5
v 1.5 3.8 -1.5
v 1.5 4 -1.5
v 1.6 4.2 -1.5
v 1.6 4.3 -1.5
v 1.7 3.4 -1.5
v 1.7 3.6 -1.5
v 1.7 3.8 -1.5
v 1.7 3.9 -1.5
v 1.7 4 -1.5
v 1.7 4.2 -1.5
v 1.7 4.3 -1.5
v 1.8 3.9 -1.5
v 1.8 4.2 -1.5
v 1.5 3.4 -1.7
v 1.5 3.6 -1.7
v 1.5 3.8 -1.7
v 1.5 4 -1.7
v 1.6 4.2 -1.7
v 1.6 4.3 -1.7
v 1.7 3.4 -1.7
v 1.7 3.6 -1.7
v 1.7 3.8 -1.7
v 1.7 3.9 -1.7
v 1.7 4 -1.7
v 1.7 4.2 -1.7
v 1.7 4.3 -1.7
v 1.8 3.9 -1.7
v 1.8 4.2 -1.7
v 1.5 4 -1.8
v 1.5 4.3 -1.8
v 1.6 4.2 -1.8
v 1.6 4.3 -1.8
v 1.7 4 -1.8
v 1.7 4.2 -1.8
v 1.5 3.4 -1.5
v 1.7 3.4 -1.5
v 1.5 3.4 -1.7
v 1.7 3.4 -1.7
v 1.7 3.9 -1.5
v 1.8 3.9 -1.5
v 1.7 3.9 -1.7
v 1.8 3.9 -1.7
v 1.5 4 -1.4
v 1.7 4 -1.4
v 1.5 4 -1.5
v 1.7 4 -1.5
v 1.5 4 -1.7
v 1.7 4 -1.7
v 1.5 4 -1.8
v 1.7 4 -1.8
v 1.6 4.2 -1.4
v 1.7 4.2 -1.4
v 1.6 4.2 -1.5
v 1.7 4.2 -1.5
v 1.8 4.2 -1.5
v 1.6 4.2 -1.7
v 1.7 4.2 -1.7
v 1.8 4.2 -1.7
v 1.6 4.2 -1.8
v 1.7 4.2 -1.8
v 1.5 4.3 -1.4
v 1.6 4.3 -1.4
v 1.6 4.3 -1.5
v 1.7 4.3 -1.5
v 1.6 4.3 -1.7
v 1.7 4.3 -1.7
v 1.5 4.3 -1.8
v 1.6 4.3 -1.8

# faces
f 3/2/1 2/2/1 1/2/1
f 4/2/1 2/2/1 3/2/1
f 5/3/1 4/3/1 3/3/1
f 6/3/1 4/3/1 5/3/1
f 8/1/1 6/1/1 5/1/1
f 9/1/1 6/1/1 8/1/1
f 11/1/1 9/1/1 8/1/1
f 11/1/1 10/1/1 9/1/1
f 11/1/1 8/1/1 7/1/1
f 12/1/1 10/1/1 11/1/1
f 13/1/2 14/1/2 17/1/2
f 17/1/2 14/1/2 18/1/2
f 15/1/2 16/1/2 19/1/2
f 19/1/2 16/1/2 20/1/2
f 21/2/2 22/2/2 23/2/2
f 23/2/2 22/2/2 24/2/2
f 23/3/2 24/3/2 25/3/2
f 25/3/2 24/3/2 26/3/2
f 25/1/2 26/1/2 27/1/2
f 27/1/2 26/1/2 28/1/2
f 29/1/2 30/1/2 33/1/2
f 33/1/2 30/1/2 34/1/2
f 31/1/2 32/1/2 35/1/2
f 35/1/2 32/1/2 36/1/2
f 34/1/2 35/1/2 37/1/2
f 37/1/2 35/1/2 38/1/2
f 39/1/2 40/1/2 41/1/2
f 41/1/2 40/1/2 42/1/2
f 45/1/3 44/1/3 43/1/3
f 46/1/3 44/1/3 45/1/3
f 47/1/3 45/1/3 43/1/3
f 48/1/3 45/1/3 47/1/3
f 55/2/3 50/2/3 49/2/3
f 56/3/3 51/3/3 50/3/3
f 56/2/3 50/2/3 55/2/3
f 57/1/3 52/1/3 51/1/3
f 57/3/3 51/3/3 56/3/3
f 58/1/3 52/1/3 57/1/3
f 59/1/3 52/1/3 58/1/3
f 60/1/3 54/1/3 53/1/3
f 61/1/3 54/1/3 60/1/3
f 62/1/3 59/1/3 58/1/3
f 62/1/3 60/1/3 59/1/3
f 63/1/3 60/1/3 62/1/3
f 64/2/4 65/2/4 70/2/4
f 65/3/4 66/3/4 71/3/4
f 70/2/4 65/2/4 71/2/4
f 66/1/4 67/1/4 72/1/4
f 71/3/4 66/3/4 72/3/4
f 72/1/4 67/1/4 73/1/4
f 73/1/4 67/1/4 74/1/4
f 68/1/4 69/1/4 75/1/4
f 75/1/4 69/1/4 76/1/4
f 73/1/4 74/1/4 77/1/4
f 74/1/4 75/1/4 77/1/4
f 77/1/4 75/1/4 78/1/4
f 79/1/4 80/1/4 81/1/4
f 81/1/4 80/1/4 82/1/4
f 79/1/4 81/1/4 83/1/4
f 83/1/4 81/1/4 84/1/4
f 87/2/5 86/2/5 85/2/5
f 88/2/5 86/2/5 87/2/5
f 91/1/5 90/1/5 89/1/5
f 92/1/5 90/1/5 91/1/5
f 95/1/5 94/1/5 93/1/5
f 96/1/5 94/1/5 95/1/5
f 99/1/5 98/1/5 97/1/5
f 100/1/5 98/1/5 99/1/5
f 101/1/6 102/1/6 103/1/6
f 103/1/6 102/1/6 104/1/6
f 104/1/6 105/1/6 107/1/6
f 107/1/6 105/1/6 108/1/6
f 106/1/6 107/1/6 109/1/6
f 109/1/6 107/1/6 110/1/6
f 111/1/6 112/1/6 113/1/6
f 111/1/6 113/1/6 115/1/6
f 113/1/6 114/1/6 115/1/6
f 115/1/6 114/1/6 116/1/6
f 111/1/6 115/1/6 117/1/6
f 117/1/6 115/1/6 118/1/6
